<!-- <svg width="131" height="40" viewBox="0 0 131 40" fill="none" xmlns="http://www.w3.org/2000/svg">
<circle cx="17.5" cy="19.5" r="13.5" fill="url(#paint0_linear_425_166)"/>
<path d="M10.4286 15.1351C14.6075 14.0893 18.7766 13.046 22.9559 12C23.1752 12.848 23.3923 13.6879 23.6118 14.5371C20.3486 15.3537 17.0907 16.1692 13.8329 16.9846C13.8336 16.9898 13.8342 16.9949 13.835 17.0001H23.9228C23.9245 17.037 23.9274 17.0668 23.9274 17.0969C23.9276 19.2878 23.9287 21.4789 23.927 23.6698C23.926 24.8933 22.9172 25.9325 21.6794 25.9896C21.5589 25.9952 21.4381 25.9986 21.3174 25.9986C18.6832 25.9992 16.049 25.9995 13.415 25.9986C12.7566 25.9984 12.1814 25.7789 11.7114 25.3255C11.2836 24.9126 11.0414 24.4063 11.0043 23.8126C10.9969 23.6941 10.9946 23.5752 10.9946 23.4565C10.994 21.5189 10.9931 19.5814 10.9959 17.644C10.9963 17.4423 10.9738 17.2479 10.9213 17.0522C10.7567 16.4395 10.6021 15.8244 10.4438 15.21C10.4385 15.1894 10.4353 15.1682 10.4286 15.1351ZM11.6049 19.6276V19.7292C11.6049 21.0375 11.6047 22.3459 11.6057 23.6541C11.6057 23.7256 11.612 23.7977 11.6228 23.8685C11.7616 24.7735 12.5004 25.3983 13.4305 25.3983C16.0963 25.3983 18.7622 25.3983 21.4281 25.398C21.5011 25.398 21.5742 25.3946 21.6469 25.3893C22.5983 25.3211 23.3167 24.5605 23.3167 23.621C23.3167 22.3282 23.3167 21.0357 23.3167 19.7429V19.6276H11.6049ZM13.4705 17.6036C13.4906 17.6357 13.5024 17.6568 13.5162 17.6763C13.8161 18.1019 14.1171 18.5267 14.4147 18.9539C14.4495 19.0038 14.4836 19.0237 14.5453 19.0232C14.9044 19.0203 15.2635 19.0218 15.6225 19.0215C15.6496 19.0215 15.6768 19.0177 15.7073 19.0153C15.7006 18.998 15.6991 18.9882 15.6939 18.9809C15.3824 18.5369 15.0714 18.0923 14.7566 17.6504C14.7379 17.6241 14.6894 17.6062 14.6543 17.6053C14.4605 17.601 14.2666 17.6032 14.0728 17.6032C13.877 17.6032 13.6809 17.6032 13.4703 17.6032L13.4705 17.6036ZM18.6032 19.0218C18.5813 18.9858 18.5696 18.9638 18.5555 18.9437C18.2552 18.5175 17.9536 18.0923 17.6552 17.6648C17.6218 17.6171 17.5873 17.6021 17.5308 17.6023C17.1681 17.6046 16.8053 17.6034 16.4426 17.6036C16.419 17.6036 16.3953 17.6059 16.3602 17.6077C16.3772 17.634 16.3865 17.6494 16.3966 17.6639C16.6725 18.0572 16.9565 18.4452 17.2204 18.8462C17.3149 18.9897 17.4181 19.032 17.5838 19.0256C17.9169 19.0126 18.2508 19.0217 18.603 19.0217L18.6032 19.0218ZM19.2443 17.6036C19.2651 17.6367 19.2767 17.6575 19.2903 17.6771C19.5906 18.103 19.8922 18.5281 20.19 18.9555C20.2253 19.0064 20.2614 19.0235 20.3217 19.023C20.6779 19.0205 21.0341 19.0218 21.3903 19.0215C21.418 19.0215 21.4455 19.0181 21.4814 19.0158C21.4709 18.9946 21.4659 18.9803 21.4577 18.9685C21.1494 18.529 20.8415 18.0893 20.5302 17.6519C20.5114 17.6256 20.4641 17.6062 20.4297 17.6055C20.2232 17.6012 20.0163 17.6034 19.8095 17.6034C19.6263 17.6034 19.443 17.6034 19.2443 17.6034V17.6036ZM21.0964 14.5442C21.0757 14.5228 21.0679 14.513 21.0586 14.505C20.6476 14.1524 20.2369 13.7993 19.824 13.4488C19.8032 13.4312 19.7605 13.4237 19.7328 13.4304C19.3634 13.52 18.9948 13.6132 18.6259 13.7056C18.6124 13.709 18.6 13.7159 18.5652 13.7298C18.5948 13.749 18.612 13.7576 18.6261 13.7696C18.9782 14.07 19.3372 14.3632 19.6782 14.6753C19.82 14.8051 19.9441 14.8502 20.1352 14.7906C20.4456 14.6937 20.7659 14.6272 21.0964 14.5442ZM15.4986 15.9453C15.4836 15.9258 15.4778 15.9147 15.4691 15.907C15.0647 15.562 14.6591 15.2185 14.2572 14.8708C14.2072 14.8276 14.1683 14.8209 14.1064 14.837C13.8061 14.9153 13.5043 14.9878 13.2033 15.0628C13.1338 15.0801 13.0649 15.099 12.9773 15.1221C13.0761 15.2072 13.1613 15.2803 13.2462 15.3533C13.5732 15.6341 13.8995 15.9157 14.2286 16.194C14.2572 16.2183 14.309 16.2395 14.3424 16.2316C14.7242 16.1407 15.1046 16.044 15.4986 15.9453ZM15.7861 14.4169C15.7966 14.4366 15.7982 14.4435 15.8026 14.4471C16.2155 14.8019 16.6278 15.1573 17.0436 15.5089C17.0703 15.5314 17.1268 15.5365 17.164 15.5276C17.5122 15.4442 17.8591 15.3562 18.2063 15.269C18.235 15.2619 18.2627 15.2517 18.3029 15.2393C17.8919 14.8874 17.4905 14.5485 17.0961 14.2022C17.013 14.1293 16.9401 14.1147 16.841 14.1511C16.7733 14.1761 16.7002 14.187 16.6295 14.2048C16.3508 14.2749 16.0721 14.3449 15.7861 14.4171V14.4169ZM11.6095 19.0162H12.815C12.8142 19.0048 12.8159 18.9974 12.8131 18.9933C12.4962 18.5418 12.1793 18.0903 11.8607 17.6397C11.8485 17.6224 11.8223 17.6068 11.8015 17.6053C11.7393 17.6008 11.6765 17.6036 11.6097 17.6036V19.0162H11.6095ZM11.5232 16.9402C11.9203 16.8407 12.308 16.7436 12.7209 16.6401C12.6854 16.6142 12.6667 16.6025 12.6501 16.5883C12.2694 16.2639 11.8889 15.9393 11.5087 15.6146C11.3817 15.5062 11.3361 15.5015 11.1727 15.5868C11.2888 16.0348 11.405 16.484 11.5232 16.9404V16.9402ZM22.1289 17.607C22.4405 18.0493 22.7465 18.4745 23.0405 18.9076C23.1138 19.0156 23.1924 19.0427 23.3106 19.011V17.6068H22.1289V17.607ZM22.5126 12.7325C22.1303 12.8287 21.7588 12.922 21.3871 13.0154L21.3783 13.042C21.3947 13.052 21.4127 13.0601 21.427 13.0723C21.8052 13.3944 22.1868 13.7125 22.5581 14.042C22.6562 14.1289 22.74 14.1609 22.8633 14.0891C22.7474 13.6408 22.6306 13.1891 22.5124 12.7323L22.5126 12.7325Z" fill="white"/>
<path d="M16.3951 20.7748C16.4152 20.7842 16.444 20.7953 16.4707 20.8103C17.2734 21.2656 18.076 21.7212 18.8785 22.1767C19.0242 22.2593 19.1698 22.3421 19.3153 22.4252C19.4252 22.4881 19.4256 22.572 19.3143 22.6353C18.4984 23.0994 17.6821 23.5628 16.8661 24.0263C16.7341 24.1013 16.6026 24.1768 16.4699 24.2506C16.3562 24.3139 16.2827 24.2744 16.2827 24.148C16.2821 23.0681 16.2827 21.9881 16.2819 20.9081C16.2819 20.8371 16.3027 20.7859 16.3951 20.7748Z" fill="white"/>
<path fill-rule="evenodd" clip-rule="evenodd" d="M96.6953 21V14.601H101.335V21H96.6953ZM91.2058 21L94.0137 14.601H88.9387L86.7685 21H91.2058ZM86.0902 23H90.3283L87.2567 30H83.6027L80.6761 23H85.0903L85.5853 24.4886L86.0902 23ZM84.4253 21L82.2977 14.601H77.1647L79.84 21H84.4253ZM76.1784 21C76.0322 19.9674 75.7039 19.0234 75.1934 18.168C74.478 16.9693 73.492 16.022 72.2354 15.326C70.998 14.63 69.577 14.282 67.9724 14.282C66.3677 14.282 64.937 14.63 63.6804 15.326C62.443 16.022 61.457 16.9693 60.7224 18.168C60.2119 19.0234 59.8836 19.9674 59.7374 21H64.5159C64.5873 20.728 64.6858 20.4703 64.8114 20.227C65.1207 19.6083 65.546 19.125 66.0874 18.777C66.648 18.429 67.2764 18.255 67.9724 18.255C68.6684 18.255 69.287 18.429 69.8284 18.777C70.3697 19.125 70.795 19.6083 71.1044 20.227C71.23 20.4703 71.3285 20.728 71.3999 21H76.1784ZM76.24 23H71.5077C71.4494 23.4887 71.315 23.937 71.1044 24.345C70.795 24.9443 70.3697 25.418 69.8284 25.766C69.287 26.114 68.6684 26.288 67.9724 26.288C67.2764 26.288 66.648 26.114 66.0874 25.766C65.546 25.418 65.1207 24.9443 64.8114 24.345C64.6008 23.937 64.4664 23.4887 64.4081 23H59.6757C59.7702 24.2584 60.1191 25.3931 60.7224 26.404C61.457 27.6027 62.443 28.55 63.6804 29.246C64.937 29.942 66.3677 30.29 67.9724 30.29C69.577 30.29 70.998 29.942 72.2354 29.246C73.492 28.55 74.478 27.6027 75.1934 26.404C75.7967 25.3931 76.1455 24.2584 76.24 23ZM96.6953 23H101.335V30H96.6953V23ZM109.185 23L104.158 30H109.639L112.202 25.4969L115.178 30H120.688L115.691 23H109.185ZM115.94 21L120.398 14.601H114.917L112.685 18.8095L109.871 14.601H104.303L108.985 21H115.94ZM99.0153 11.556C98.1453 11.556 97.459 11.353 96.9563 10.947C96.473 10.5217 96.2313 9.92233 96.2313 9.149C96.2313 8.453 96.4826 7.88266 96.9853 7.438C97.488 6.99333 98.1646 6.771 99.0153 6.771C99.8853 6.771 100.562 6.98366 101.045 7.409C101.529 7.815 101.77 8.395 101.77 9.149C101.77 9.86433 101.519 10.4443 101.016 10.889C100.533 11.3337 99.866 11.556 99.0153 11.556ZM35.7554 30V9.7H40.1634L45.9801 19.1664L51.8794 9.7H56.1134V30H51.3284V23.678C51.3284 21.938 51.3671 20.372 51.4444 18.98C51.4727 18.5729 51.5059 18.1666 51.5441 17.7611L46.8334 25.07H44.9194L40.3272 17.8433C40.3539 18.1716 40.3767 18.5022 40.3954 18.835C40.4921 20.1883 40.5404 21.8027 40.5404 23.678V30H35.7554Z" fill="url(#paint1_linear_425_166)"/>
<defs>
<linearGradient id="paint0_linear_425_166" x1="4.66832" y1="24.1098" x2="34.1078" y2="13.9886" gradientUnits="userSpaceOnUse">
<stop stop-color="#F89E00"/>
<stop offset="1" stop-color="#DA2F68"/>
</linearGradient>
<linearGradient id="paint1_linear_425_166" x1="35.4961" y1="26.2198" x2="124.453" y2="23.9271" gradientUnits="userSpaceOnUse">
<stop stop-color="#F89E00"/>
<stop offset="1" stop-color="#DA2F68"/>
</linearGradient>
</defs>
</svg> -->

<svg width="219.16" height="42.93" viewBox="0 0 219.16 42.93" xmlns="http://www.w3.org/2000/svg"><g id="svgGroup" stroke-linecap="round" fill-rule="evenodd" font-size="9pt" stroke="#000" stroke-width="0.25mm" fill="#d6702c" style="stroke:#000;stroke-width:0.25mm;fill:#d6702c"><path d="M 16.797 32.168 L 16.797 22.52 L 12.207 30.977 A 3.499 3.499 0 0 1 11.823 31.554 A 2.901 2.901 0 0 1 11.504 31.885 A 1.368 1.368 0 0 1 10.962 32.172 Q 10.756 32.23 10.511 32.243 A 2.712 2.712 0 0 1 10.371 32.246 A 1.957 1.957 0 0 1 9.851 32.18 A 1.515 1.515 0 0 1 9.268 31.875 A 3.296 3.296 0 0 1 8.535 30.996 L 3.691 22.676 A 9505.159 9505.159 0 0 1 3.804 25.21 A 7378.398 7378.398 0 0 1 3.906 27.539 L 3.984 29.453 A 295.021 295.021 0 0 0 4.023 30.376 A 234.291 234.291 0 0 0 4.063 31.231 A 1246.069 1246.069 0 0 1 4.095 31.913 Q 4.109 32.225 4.122 32.503 A 712.407 712.407 0 0 1 4.131 32.686 A 109.038 109.038 0 0 0 4.145 32.982 Q 4.164 33.373 4.178 33.591 A 14.138 14.138 0 0 0 4.18 33.613 Q 4.195 33.84 4.181 34.032 A 2.157 2.157 0 0 1 4.17 34.141 A 0.988 0.988 0 0 1 4.119 34.356 A 0.782 0.782 0 0 1 4.023 34.541 A 0.694 0.694 0 0 1 3.799 34.743 A 0.893 0.893 0 0 1 3.691 34.795 A 0.986 0.986 0 0 1 3.525 34.845 Q 3.352 34.882 3.113 34.883 A 3.127 3.127 0 0 1 3.105 34.883 L 0.957 34.883 A 1.065 1.065 0 0 1 0.346 34.689 A 1.322 1.322 0 0 1 0.303 34.658 Q 0.025 34.452 0.002 33.874 A 2.686 2.686 0 0 1 0 33.77 L 0 8.926 A 2.658 2.658 0 0 1 0.107 8.184 A 1.763 1.763 0 0 1 0.479 7.51 A 1.753 1.753 0 0 1 0.896 7.163 A 2.26 2.26 0 0 1 1.172 7.022 A 2.105 2.105 0 0 1 1.609 6.89 Q 1.82 6.85 2.062 6.839 A 3.952 3.952 0 0 1 2.227 6.836 L 8.516 6.836 A 3.686 3.686 0 0 1 9.131 6.885 Q 9.512 6.949 9.824 7.1 A 2.125 2.125 0 0 1 10.468 7.585 A 2.849 2.849 0 0 1 10.762 7.969 L 16.016 16.309 L 19.531 9.57 A 25.874 25.874 0 0 1 19.839 8.992 A 20.212 20.212 0 0 1 20.137 8.467 A 3.687 3.687 0 0 1 20.684 7.748 A 3.379 3.379 0 0 1 20.83 7.608 Q 21.23 7.246 21.826 7.041 A 3.278 3.278 0 0 1 22.321 6.916 Q 22.576 6.871 22.872 6.851 A 7.361 7.361 0 0 1 23.359 6.836 L 28.555 6.836 A 4.736 4.736 0 0 1 29.144 6.871 Q 29.446 6.909 29.705 6.988 A 2.68 2.68 0 0 1 29.834 7.031 A 2.848 2.848 0 0 1 30.295 7.245 A 2.147 2.147 0 0 1 30.713 7.559 A 1.983 1.983 0 0 1 31.211 8.34 Q 31.367 8.789 31.367 9.317 L 31.367 32.168 A 6.515 6.515 0 0 1 31.34 32.781 A 4.995 4.995 0 0 1 31.27 33.272 Q 31.172 33.77 30.869 34.131 A 1.656 1.656 0 0 1 30.449 34.485 Q 30.266 34.595 30.04 34.677 A 2.856 2.856 0 0 1 30.01 34.688 A 2.989 2.989 0 0 1 29.55 34.806 Q 29.12 34.883 28.555 34.883 L 19.531 34.883 Q 18.936 34.883 18.492 34.786 A 2.815 2.815 0 0 1 18.203 34.707 A 2.401 2.401 0 0 1 17.783 34.523 A 1.751 1.751 0 0 1 17.363 34.199 A 1.741 1.741 0 0 1 17.016 33.646 A 2.224 2.224 0 0 1 16.924 33.359 A 3.944 3.944 0 0 1 16.837 32.882 Q 16.797 32.553 16.797 32.168 Z M 173.477 32.168 L 173.477 17.598 A 6.435 6.435 0 0 1 173.502 17.007 Q 173.53 16.711 173.586 16.451 A 3.883 3.883 0 0 1 173.594 16.416 A 1.897 1.897 0 0 1 173.768 15.938 A 1.567 1.567 0 0 1 174.043 15.567 A 1.758 1.758 0 0 1 174.438 15.274 Q 174.625 15.17 174.853 15.093 A 3.213 3.213 0 0 1 174.961 15.059 A 3.566 3.566 0 0 1 175.427 14.955 Q 175.677 14.916 175.97 14.898 A 8.46 8.46 0 0 1 176.484 14.883 L 184.473 14.883 A 7.402 7.402 0 0 1 185.146 14.912 Q 185.609 14.954 185.986 15.059 Q 186.621 15.234 186.895 15.664 A 6.194 6.194 0 0 1 187.1 15.528 Q 187.284 15.411 187.51 15.283 A 6.528 6.528 0 0 1 188.039 15.015 A 7.716 7.716 0 0 1 188.301 14.902 A 6.172 6.172 0 0 1 189.038 14.655 A 6.968 6.968 0 0 1 189.219 14.609 A 4.337 4.337 0 0 1 190.234 14.492 Q 192.109 14.492 193.154 15.781 A 4.137 4.137 0 0 1 193.85 17.085 Q 194.046 17.67 194.132 18.383 A 9.943 9.943 0 0 1 194.199 19.57 L 194.199 33.965 A 2.029 2.029 0 0 1 194.191 34.158 Q 194.172 34.355 194.111 34.483 A 0.901 0.901 0 0 1 194.04 34.608 Q 193.976 34.701 193.896 34.756 A 0.61 0.61 0 0 1 193.691 34.846 A 0.775 0.775 0 0 1 193.594 34.863 Q 193.418 34.883 193.242 34.883 L 191.992 34.883 Q 191.731 34.883 191.565 34.805 A 0.465 0.465 0 0 1 191.338 34.59 A 1.379 1.379 0 0 1 191.191 33.965 L 191.191 19.375 A 4.969 4.969 0 0 0 191.154 18.746 Q 191.069 18.083 190.791 17.676 Q 190.391 17.09 189.512 17.09 Q 189.063 17.09 188.604 17.334 Q 188.145 17.578 187.871 17.852 L 187.871 32.149 A 6.738 6.738 0 0 1 187.849 32.704 Q 187.827 32.974 187.781 33.211 A 3.723 3.723 0 0 1 187.754 33.34 A 1.88 1.88 0 0 1 187.547 33.872 A 1.658 1.658 0 0 1 187.305 34.19 A 1.743 1.743 0 0 1 186.895 34.498 Q 186.671 34.622 186.387 34.707 A 3.566 3.566 0 0 1 185.92 34.811 Q 185.671 34.85 185.378 34.868 A 8.46 8.46 0 0 1 184.863 34.883 L 176.484 34.883 Q 175.547 34.883 174.961 34.707 Q 174.459 34.556 174.143 34.291 A 1.574 1.574 0 0 1 174.043 34.199 Q 173.711 33.867 173.594 33.359 A 4.242 4.242 0 0 1 173.514 32.882 Q 173.477 32.553 173.477 32.168 Z M 161.895 15.723 L 164.922 23.184 L 167.656 16.035 A 182.111 182.111 0 0 0 167.749 15.794 A 132.04 132.04 0 0 0 167.832 15.577 A 1.573 1.573 0 0 1 167.945 15.339 A 1.325 1.325 0 0 1 168.027 15.215 A 0.763 0.763 0 0 1 168.278 15.001 A 0.927 0.927 0 0 1 168.34 14.971 A 0.886 0.886 0 0 1 168.516 14.914 Q 168.604 14.895 168.708 14.888 A 1.946 1.946 0 0 1 168.848 14.883 L 171.133 14.883 A 1.43 1.43 0 0 1 171.319 14.894 Q 171.518 14.92 171.607 15.01 A 0.252 0.252 0 0 1 171.68 15.195 A 0.937 0.937 0 0 1 171.664 15.355 Q 171.634 15.526 171.547 15.76 A 4.567 4.567 0 0 1 171.484 15.918 L 160.449 41.953 A 19.486 19.486 0 0 0 160.367 42.134 Q 160.303 42.277 160.254 42.393 A 1.281 1.281 0 0 1 160.18 42.542 Q 160.135 42.619 160.083 42.679 A 0.761 0.761 0 0 1 160.068 42.695 A 0.671 0.671 0 0 1 159.805 42.871 A 0.764 0.764 0 0 1 159.683 42.905 Q 159.554 42.93 159.375 42.93 L 156.855 42.93 A 1.46 1.46 0 0 1 156.656 42.917 Q 156.435 42.887 156.34 42.78 A 0.293 0.293 0 0 1 156.27 42.578 A 0.702 0.702 0 0 1 156.287 42.433 Q 156.334 42.216 156.504 41.875 L 159.121 36.25 L 149.453 16.524 A 2.81 2.81 0 0 1 149.344 16.248 Q 149.298 16.11 149.277 15.987 A 1.202 1.202 0 0 1 149.258 15.781 A 0.972 0.972 0 0 1 149.295 15.505 A 0.678 0.678 0 0 1 149.639 15.088 A 1.734 1.734 0 0 1 150.082 14.919 A 1.497 1.497 0 0 1 150.41 14.883 L 160.313 14.883 A 2.813 2.813 0 0 1 160.72 14.911 Q 160.928 14.941 161.097 15.005 A 1.225 1.225 0 0 1 161.396 15.166 Q 161.637 15.345 161.773 15.521 A 0.936 0.936 0 0 1 161.895 15.723 Z M 130.176 27.363 L 131.543 13.555 A 9.686 9.686 0 0 1 131.853 11.884 Q 132.125 10.924 132.596 10.157 A 5.938 5.938 0 0 1 132.695 10 A 7.376 7.376 0 0 1 135.02 7.725 A 9.483 9.483 0 0 1 137.842 6.582 A 10.781 10.781 0 0 1 138.105 6.524 A 16.922 16.922 0 0 1 141.543 6.172 A 32.697 32.697 0 0 1 144.336 6.289 A 58.462 58.462 0 0 1 145.649 6.416 A 45.621 45.621 0 0 1 146.855 6.563 A 55.206 55.206 0 0 1 147.676 6.68 Q 148.08 6.741 148.437 6.802 A 28.892 28.892 0 0 1 148.848 6.875 Q 149.656 7.026 150.048 7.104 A 29.786 29.786 0 0 1 150.078 7.109 Q 150.187 7.137 150.245 7.185 A 0.174 0.174 0 0 1 150.313 7.324 A 0.201 0.201 0 0 1 150.311 7.344 Q 150.306 7.39 150.284 7.506 A 8.637 8.637 0 0 1 150.273 7.559 L 149.98 8.965 A 0.546 0.546 0 0 1 149.96 9.025 Q 149.925 9.109 149.873 9.131 A 0.402 0.402 0 0 1 149.816 9.151 Q 149.78 9.16 149.746 9.16 Q 148.887 9.16 148.262 9.453 A 2.79 2.79 0 0 0 147.227 10.274 A 3.563 3.563 0 0 0 146.74 11.127 A 4.356 4.356 0 0 0 146.602 11.524 A 7.697 7.697 0 0 0 146.371 12.573 A 9.143 9.143 0 0 0 146.309 13.086 L 145.137 27.285 Q 144.98 29.004 144.258 30.527 A 8.162 8.162 0 0 1 142.246 33.184 A 8.85 8.85 0 0 1 140.328 34.456 A 11.22 11.22 0 0 1 139.082 34.981 A 11.233 11.233 0 0 1 136.868 35.508 A 15.196 15.196 0 0 1 134.785 35.645 A 30.666 30.666 0 0 1 132.062 35.527 A 27.656 27.656 0 0 1 131.66 35.488 A 46.163 46.163 0 0 1 130.225 35.317 A 34.673 34.673 0 0 1 128.926 35.117 A 54.241 54.241 0 0 1 128.051 34.958 Q 127.62 34.875 127.242 34.794 A 28.031 28.031 0 0 1 126.807 34.697 Q 125.988 34.509 125.592 34.411 A 22.614 22.614 0 0 1 125.527 34.395 Q 125.419 34.368 125.361 34.319 A 0.174 0.174 0 0 1 125.293 34.18 A 0.111 0.111 0 0 1 125.294 34.167 Q 125.299 34.134 125.319 34.03 A 15.961 15.961 0 0 1 125.332 33.966 L 125.664 32.481 A 0.546 0.546 0 0 1 125.685 32.421 Q 125.72 32.337 125.771 32.315 A 0.402 0.402 0 0 1 125.828 32.295 Q 125.865 32.285 125.898 32.285 A 5.104 5.104 0 0 0 126.969 32.177 A 4.405 4.405 0 0 0 127.49 32.031 A 3.134 3.134 0 0 0 128.77 31.192 Q 129.316 30.606 129.678 29.668 Q 129.974 28.9 130.119 27.843 A 13.083 13.083 0 0 0 130.176 27.363 Z M 122.109 30.977 L 122.793 32.031 Q 122.855 32.13 122.878 32.214 A 0.347 0.347 0 0 1 122.891 32.305 A 0.386 0.386 0 0 1 122.881 32.394 A 0.258 0.258 0 0 1 122.813 32.52 A 1.573 1.573 0 0 1 122.715 32.61 A 1.307 1.307 0 0 1 122.656 32.656 A 13.446 13.446 0 0 1 122.132 33.003 Q 121.66 33.3 121.074 33.623 A 12.002 12.002 0 0 1 120.061 34.119 A 16.298 16.298 0 0 1 118.896 34.57 A 16.495 16.495 0 0 1 117.488 34.986 A 21.955 21.955 0 0 1 116.094 35.283 A 17.322 17.322 0 0 1 114.237 35.512 A 22.249 22.249 0 0 1 112.656 35.567 Q 111.191 35.567 109.727 35.332 A 14.196 14.196 0 0 1 106.924 34.59 A 11.015 11.015 0 0 1 104.434 33.262 Q 103.281 32.442 102.432 31.25 A 9.162 9.162 0 0 1 101.406 29.364 A 11.085 11.085 0 0 1 101.094 28.486 A 10.472 10.472 0 0 1 100.715 26.701 A 14.417 14.417 0 0 1 100.605 24.883 A 13.921 13.921 0 0 1 100.727 23.003 A 10.421 10.421 0 0 1 101.094 21.318 A 10.352 10.352 0 0 1 101.834 19.523 A 8.708 8.708 0 0 1 102.432 18.555 Q 103.281 17.363 104.434 16.533 A 11.084 11.084 0 0 1 106.924 15.186 A 13.778 13.778 0 0 1 109.727 14.434 A 18.516 18.516 0 0 1 112.656 14.199 A 19.234 19.234 0 0 1 115.574 14.413 A 16.153 16.153 0 0 1 117.197 14.746 A 9.985 9.985 0 0 1 119.713 15.767 A 8.864 8.864 0 0 1 120.84 16.543 A 8.131 8.131 0 0 1 122.845 18.973 A 9.989 9.989 0 0 1 123.262 19.824 A 9.955 9.955 0 0 1 123.889 21.911 Q 124.141 23.227 124.141 24.805 L 124.141 25.899 Q 124.141 26.25 123.965 26.445 A 0.518 0.518 0 0 1 123.766 26.579 Q 123.61 26.641 123.379 26.641 L 115.293 26.641 Q 115.449 28.086 115.85 29.053 A 7.082 7.082 0 0 0 116.187 29.761 Q 116.372 30.097 116.577 30.365 A 3.729 3.729 0 0 0 116.768 30.596 A 3.452 3.452 0 0 0 117.272 31.061 A 2.617 2.617 0 0 0 117.891 31.406 A 3.561 3.561 0 0 0 118.558 31.596 A 2.903 2.903 0 0 0 119.063 31.641 Q 119.59 31.641 120.02 31.494 Q 120.449 31.348 120.791 31.172 Q 121.051 31.038 121.243 30.921 A 4.228 4.228 0 0 0 121.357 30.85 A 1.768 1.768 0 0 1 121.46 30.787 Q 121.61 30.703 121.699 30.703 A 0.833 0.833 0 0 1 121.78 30.707 Q 121.892 30.718 121.943 30.762 A 0.432 0.432 0 0 1 121.984 30.803 Q 122.026 30.849 122.076 30.925 A 2.184 2.184 0 0 1 122.109 30.977 Z M 218.379 31.192 L 219.063 32.246 Q 219.124 32.345 219.147 32.429 A 0.347 0.347 0 0 1 219.16 32.52 A 0.386 0.386 0 0 1 219.151 32.609 A 0.258 0.258 0 0 1 219.082 32.734 A 1.573 1.573 0 0 1 218.984 32.825 A 1.307 1.307 0 0 1 218.926 32.871 A 11.673 11.673 0 0 1 218.401 33.215 Q 218.106 33.398 217.767 33.588 A 21.734 21.734 0 0 1 217.344 33.818 Q 216.408 34.316 215.171 34.725 A 17.198 17.198 0 0 1 215.166 34.727 A 18.045 18.045 0 0 1 213.681 35.145 A 23.275 23.275 0 0 1 212.402 35.41 Q 210.879 35.684 209.082 35.684 Q 207.617 35.684 206.152 35.449 Q 204.688 35.215 203.35 34.688 A 11.386 11.386 0 0 1 200.859 33.33 A 8.764 8.764 0 0 1 198.857 31.318 A 8.968 8.968 0 0 1 197.86 29.509 A 10.93 10.93 0 0 1 197.52 28.565 A 10.572 10.572 0 0 1 197.128 26.691 A 14.148 14.148 0 0 1 197.031 25 A 13.921 13.921 0 0 1 197.152 23.12 A 10.421 10.421 0 0 1 197.52 21.436 A 10.282 10.282 0 0 1 198.227 19.706 A 8.567 8.567 0 0 1 198.857 18.682 A 8.764 8.764 0 0 1 200.859 16.67 A 11.386 11.386 0 0 1 203.35 15.313 Q 204.688 14.785 206.152 14.551 A 18.516 18.516 0 0 1 209.082 14.317 A 19.158 19.158 0 0 1 211.889 14.517 A 17.537 17.537 0 0 1 212.168 14.561 A 21.009 21.009 0 0 1 213.936 14.927 A 17.303 17.303 0 0 1 214.912 15.205 A 20.368 20.368 0 0 1 216.108 15.625 A 15.749 15.749 0 0 1 217.178 16.084 A 13.38 13.38 0 0 1 217.879 16.442 Q 218.215 16.627 218.493 16.81 A 6.353 6.353 0 0 1 218.809 17.031 A 1.368 1.368 0 0 1 218.906 17.112 A 1.648 1.648 0 0 1 218.965 17.168 A 0.258 0.258 0 0 1 219.034 17.296 A 0.388 0.388 0 0 1 219.043 17.383 A 0.415 0.415 0 0 1 219.007 17.55 A 0.589 0.589 0 0 1 218.945 17.656 L 218.262 18.711 Q 218.185 18.834 218.126 18.897 A 0.393 0.393 0 0 1 218.096 18.926 Q 218.027 18.984 217.852 18.984 A 0.324 0.324 0 0 1 217.772 18.973 Q 217.674 18.948 217.539 18.867 Q 217.405 18.787 217.224 18.692 A 10.596 10.596 0 0 0 217.051 18.604 Q 216.758 18.457 216.367 18.33 A 2.547 2.547 0 0 0 215.876 18.225 A 3.326 3.326 0 0 0 215.488 18.203 A 2.978 2.978 0 0 0 214.781 18.293 Q 214.452 18.373 214.102 18.526 Q 213.387 18.836 212.762 19.572 A 5.497 5.497 0 0 0 212.715 19.629 Q 212.07 20.41 211.65 21.719 A 7.821 7.821 0 0 0 211.382 22.867 Q 211.23 23.813 211.23 25 A 15.337 15.337 0 0 0 211.287 26.359 Q 211.385 27.453 211.65 28.281 Q 211.98 29.309 212.448 30.005 A 4.278 4.278 0 0 0 212.715 30.361 Q 213.33 31.098 214.035 31.416 A 2.835 2.835 0 0 0 214.102 31.445 A 4.38 4.38 0 0 0 214.732 31.659 Q 215.095 31.75 215.431 31.757 A 2.685 2.685 0 0 0 215.488 31.758 A 3.282 3.282 0 0 0 216.041 31.713 A 2.711 2.711 0 0 0 216.387 31.631 A 4.823 4.823 0 0 0 216.772 31.494 A 3.605 3.605 0 0 0 217.109 31.338 A 18.633 18.633 0 0 0 217.33 31.219 Q 217.416 31.172 217.493 31.128 A 9.366 9.366 0 0 0 217.637 31.045 Q 217.804 30.946 217.912 30.924 A 0.288 0.288 0 0 1 217.969 30.918 A 0.833 0.833 0 0 1 218.05 30.922 Q 218.162 30.933 218.213 30.977 A 0.432 0.432 0 0 1 218.254 31.017 Q 218.295 31.064 218.346 31.14 A 2.184 2.184 0 0 1 218.379 31.192 Z M 71.953 15.723 L 75 23.359 L 77.715 16.035 Q 77.849 15.646 78.001 15.366 A 2.67 2.67 0 0 1 78.096 15.205 A 0.604 0.604 0 0 1 78.371 14.978 Q 78.58 14.886 78.905 14.883 A 2.381 2.381 0 0 1 78.926 14.883 L 80.996 14.883 Q 81.362 14.883 81.491 15.021 A 0.272 0.272 0 0 1 81.563 15.215 A 0.679 0.679 0 0 1 81.549 15.339 Q 81.511 15.542 81.362 15.885 A 6.366 6.366 0 0 1 81.348 15.918 L 73.867 33.555 A 4.438 4.438 0 0 1 73.673 33.968 Q 73.478 34.332 73.252 34.551 A 1.114 1.114 0 0 1 72.77 34.822 Q 72.554 34.883 72.285 34.883 L 69.199 34.883 Q 68.873 34.883 68.634 34.803 A 1.136 1.136 0 0 1 68.516 34.756 A 1.597 1.597 0 0 1 68.215 34.576 A 1.356 1.356 0 0 1 68.057 34.434 Q 67.871 34.238 67.754 34.014 A 5.331 5.331 0 0 1 67.646 33.796 A 4.034 4.034 0 0 1 67.559 33.594 L 59.512 16.524 A 2.095 2.095 0 0 1 59.4 16.237 Q 59.352 16.08 59.34 15.935 A 1.162 1.162 0 0 1 59.336 15.84 A 1.085 1.085 0 0 1 59.372 15.55 A 0.726 0.726 0 0 1 59.707 15.108 A 1.581 1.581 0 0 1 60.119 14.929 A 1.353 1.353 0 0 1 60.469 14.883 L 70 14.883 A 10.133 10.133 0 0 1 70.344 14.888 Q 70.504 14.894 70.642 14.905 A 4.63 4.63 0 0 1 70.82 14.922 A 2.277 2.277 0 0 1 71.053 14.961 Q 71.165 14.986 71.26 15.022 A 1.136 1.136 0 0 1 71.367 15.068 A 1.264 1.264 0 0 1 71.573 15.196 A 1.013 1.013 0 0 1 71.719 15.332 Q 71.855 15.488 71.953 15.723 Z M 46.25 35.567 Q 44.785 35.567 43.32 35.332 A 14.196 14.196 0 0 1 40.518 34.59 A 11.015 11.015 0 0 1 38.027 33.262 Q 36.875 32.442 36.025 31.25 A 9.162 9.162 0 0 1 35 29.364 A 11.085 11.085 0 0 1 34.688 28.486 A 10.472 10.472 0 0 1 34.308 26.701 A 14.417 14.417 0 0 1 34.199 24.883 A 13.921 13.921 0 0 1 34.32 23.003 A 10.421 10.421 0 0 1 34.688 21.318 A 10.352 10.352 0 0 1 35.428 19.523 A 8.708 8.708 0 0 1 36.025 18.555 Q 36.875 17.363 38.027 16.533 A 11.084 11.084 0 0 1 40.518 15.186 A 13.778 13.778 0 0 1 43.32 14.434 A 18.516 18.516 0 0 1 46.25 14.199 A 23.667 23.667 0 0 1 48.925 14.355 A 25.854 25.854 0 0 1 49.014 14.365 A 14.041 14.041 0 0 1 51.768 14.971 A 11.162 11.162 0 0 1 54.287 16.162 A 7.939 7.939 0 0 1 56.357 18.086 A 8.448 8.448 0 0 1 57.323 19.73 A 10.717 10.717 0 0 1 57.764 20.889 A 10.387 10.387 0 0 1 58.135 22.544 Q 58.281 23.554 58.281 24.727 A 17.095 17.095 0 0 1 58.184 26.599 Q 58.059 27.731 57.773 28.682 A 10.591 10.591 0 0 1 57.148 30.294 A 8.228 8.228 0 0 1 56.377 31.572 A 8.327 8.327 0 0 1 54.569 33.379 A 7.836 7.836 0 0 1 54.316 33.555 Q 53.145 34.336 51.807 34.776 A 14.532 14.532 0 0 1 49.043 35.391 A 22.817 22.817 0 0 1 46.25 35.567 Z M 83.379 32.168 L 83.379 17.598 A 6.435 6.435 0 0 1 83.405 17.007 Q 83.432 16.711 83.488 16.451 A 3.883 3.883 0 0 1 83.496 16.416 A 1.897 1.897 0 0 1 83.671 15.938 A 1.567 1.567 0 0 1 83.945 15.567 A 1.758 1.758 0 0 1 84.341 15.274 Q 84.527 15.17 84.756 15.093 A 3.213 3.213 0 0 1 84.863 15.059 A 3.566 3.566 0 0 1 85.33 14.955 Q 85.579 14.916 85.872 14.898 A 8.46 8.46 0 0 1 86.387 14.883 L 94.941 14.883 A 8.097 8.097 0 0 1 95.47 14.899 Q 95.742 14.917 95.973 14.954 A 3.36 3.36 0 0 1 96.396 15.049 A 2.442 2.442 0 0 1 96.805 15.209 Q 97.036 15.327 97.205 15.486 A 1.449 1.449 0 0 1 97.266 15.547 A 1.567 1.567 0 0 1 97.614 16.144 A 2 2 0 0 1 97.676 16.387 Q 97.756 16.803 97.77 17.35 A 9.383 9.383 0 0 1 97.773 17.598 L 97.773 32.207 Q 97.773 32.778 97.701 33.226 A 4.28 4.28 0 0 1 97.676 33.369 A 1.822 1.822 0 0 1 97.492 33.891 A 1.601 1.601 0 0 1 97.266 34.209 A 1.611 1.611 0 0 1 96.84 34.536 Q 96.642 34.644 96.396 34.717 Q 95.84 34.883 94.941 34.883 L 86.387 34.883 Q 85.449 34.883 84.863 34.707 Q 84.361 34.556 84.045 34.291 A 1.574 1.574 0 0 1 83.945 34.199 Q 83.613 33.867 83.496 33.359 A 4.242 4.242 0 0 1 83.416 32.882 Q 83.379 32.553 83.379 32.168 Z M 143.496 27.285 L 144.668 13.086 A 8.39 8.39 0 0 1 144.847 11.868 A 7.541 7.541 0 0 1 144.912 11.602 A 5.591 5.591 0 0 1 145.215 10.738 A 4.762 4.762 0 0 1 145.42 10.332 Q 145.742 9.766 146.24 9.365 Q 146.738 8.965 147.422 8.809 Q 146.464 8.849 145.772 9.057 A 3.654 3.654 0 0 0 145.205 9.277 A 4.103 4.103 0 0 0 144.552 9.676 A 3.009 3.009 0 0 0 143.926 10.303 A 3.617 3.617 0 0 0 143.311 11.66 A 11.277 11.277 0 0 0 143.133 12.653 A 9.668 9.668 0 0 0 143.086 13.086 L 141.895 27.285 A 7.368 7.368 0 0 1 141.606 28.765 A 8.469 8.469 0 0 1 141.494 29.111 A 8.062 8.062 0 0 1 140.615 30.889 Q 140.059 31.738 139.297 32.49 A 8.282 8.282 0 0 1 137.578 33.789 A 9.406 9.406 0 0 0 139.002 33.336 A 7.263 7.263 0 0 0 140.146 32.744 A 7.765 7.765 0 0 0 141.35 31.804 A 6.565 6.565 0 0 0 141.943 31.152 Q 142.656 30.254 143.037 29.248 A 7.657 7.657 0 0 0 143.401 27.979 A 6.485 6.485 0 0 0 143.496 27.285 Z M 29.707 31.992 L 29.707 9.727 A 5.168 5.168 0 0 0 29.701 9.475 Q 29.689 9.218 29.648 9.043 A 0.776 0.776 0 0 0 29.585 8.865 A 0.557 0.557 0 0 0 29.414 8.662 A 0.746 0.746 0 0 0 29.224 8.565 Q 29.135 8.534 29.03 8.517 A 1.469 1.469 0 0 0 28.945 8.506 A 4.827 4.827 0 0 0 28.745 8.491 Q 28.506 8.477 28.184 8.477 L 28.184 33.242 Q 28.65 33.242 28.942 33.213 A 3.886 3.886 0 0 0 28.945 33.213 A 1.306 1.306 0 0 0 29.145 33.178 Q 29.303 33.137 29.414 33.057 A 0.578 0.578 0 0 0 29.612 32.8 A 0.789 0.789 0 0 0 29.648 32.686 A 1.673 1.673 0 0 0 29.679 32.514 Q 29.703 32.331 29.706 32.077 A 6.441 6.441 0 0 0 29.707 31.992 Z M 84.619 3.984 A 6.303 6.303 0 0 0 84.102 6.524 Q 84.102 7.852 84.619 9.033 Q 85.137 10.215 86.016 11.094 A 6.633 6.633 0 0 0 88.086 12.49 A 6.303 6.303 0 0 0 90.625 13.008 Q 91.953 13.008 93.135 12.49 Q 94.316 11.973 95.195 11.094 A 6.664 6.664 0 0 0 96.592 9.033 A 6.187 6.187 0 0 0 97.109 6.524 Q 97.109 5.176 96.592 3.984 A 6.633 6.633 0 0 0 95.195 1.914 A 6.664 6.664 0 0 0 93.135 0.518 A 6.187 6.187 0 0 0 90.625 0 Q 89.277 0 88.086 0.518 A 6.633 6.633 0 0 0 86.016 1.914 A 6.633 6.633 0 0 0 84.619 3.984 Z M 117.204 32.561 A 3.913 3.913 0 0 0 117.773 32.734 Q 116.777 32.734 115.742 32.324 A 4.657 4.657 0 0 1 114.857 31.856 A 5.588 5.588 0 0 1 113.857 30.986 Q 113.38 30.465 112.997 29.77 A 8.831 8.831 0 0 1 112.461 28.584 Q 112.132 27.697 112.001 26.58 A 13.578 13.578 0 0 1 111.914 25 A 15.65 15.65 0 0 1 111.923 24.471 Q 111.949 23.694 112.054 23.012 A 8.486 8.486 0 0 1 112.383 21.621 A 7.713 7.713 0 0 1 112.861 20.483 A 5.62 5.62 0 0 1 113.662 19.317 Q 114.473 18.418 115.537 17.998 A 6.652 6.652 0 0 1 117.773 17.539 A 3.941 3.941 0 0 0 117.107 17.703 A 4.8 4.8 0 0 0 116.25 18.096 A 3.757 3.757 0 0 0 115.474 18.697 A 5.086 5.086 0 0 0 114.883 19.414 A 5.247 5.247 0 0 0 114.697 19.704 Q 114.217 20.509 113.896 21.66 Q 113.658 22.515 113.569 23.606 A 17.136 17.136 0 0 0 113.516 25 A 19.066 19.066 0 0 0 113.539 25.963 Q 113.616 27.481 113.945 28.574 Q 114.188 29.379 114.499 30.01 A 5.821 5.821 0 0 0 115.02 30.879 A 6.583 6.583 0 0 0 115.111 31 Q 115.391 31.364 115.688 31.643 A 3.768 3.768 0 0 0 116.406 32.178 A 7.249 7.249 0 0 0 116.616 32.292 Q 116.92 32.451 117.204 32.561 Z M 213.259 32.36 A 3.544 3.544 0 0 0 213.828 32.539 A 5.701 5.701 0 0 1 213.499 32.524 A 6.1 6.1 0 0 1 211.729 32.109 A 4.795 4.795 0 0 1 210.974 31.733 A 5.439 5.439 0 0 1 209.844 30.801 A 5.817 5.817 0 0 1 209.022 29.661 A 8.053 8.053 0 0 1 208.486 28.477 A 7.119 7.119 0 0 1 208.308 27.911 Q 208.132 27.264 208.048 26.507 A 13.573 13.573 0 0 1 207.969 25 A 15.131 15.131 0 0 1 207.982 24.367 Q 208.051 22.722 208.486 21.514 Q 209.004 20.078 209.844 19.18 A 6.096 6.096 0 0 1 210.125 18.898 A 5.127 5.127 0 0 1 211.729 17.861 Q 212.773 17.442 213.828 17.422 A 3.071 3.071 0 0 0 213.586 17.486 Q 213.315 17.569 213.023 17.708 A 5.971 5.971 0 0 0 212.461 18.018 A 3.703 3.703 0 0 0 212.383 18.067 Q 212.007 18.313 211.657 18.67 A 6.132 6.132 0 0 0 211.074 19.365 A 5.476 5.476 0 0 0 210.886 19.642 Q 210.614 20.07 210.385 20.596 A 10.043 10.043 0 0 0 210 21.641 A 7.922 7.922 0 0 0 209.842 22.234 Q 209.57 23.432 209.57 25 A 16.698 16.698 0 0 0 209.584 25.684 Q 209.614 26.416 209.71 27.056 A 8.659 8.659 0 0 0 210 28.35 A 11.223 11.223 0 0 0 210.119 28.709 Q 210.516 29.846 211.074 30.615 Q 211.719 31.504 212.461 31.953 A 6.778 6.778 0 0 0 212.693 32.088 Q 212.985 32.249 213.259 32.36 Z M 96.113 31.992 L 96.113 17.774 A 5.168 5.168 0 0 0 96.108 17.522 Q 96.095 17.265 96.055 17.09 A 0.776 0.776 0 0 0 95.991 16.912 A 0.557 0.557 0 0 0 95.82 16.709 A 0.746 0.746 0 0 0 95.63 16.612 Q 95.542 16.581 95.436 16.564 A 1.469 1.469 0 0 0 95.352 16.553 A 4.827 4.827 0 0 0 95.151 16.537 Q 94.912 16.524 94.59 16.524 L 94.59 33.242 Q 95.059 33.242 95.352 33.213 A 1.306 1.306 0 0 0 95.551 33.178 Q 95.709 33.137 95.82 33.057 A 0.578 0.578 0 0 0 96.018 32.8 A 0.789 0.789 0 0 0 96.055 32.686 A 1.673 1.673 0 0 0 96.086 32.514 Q 96.109 32.331 96.113 32.077 A 6.441 6.441 0 0 0 96.113 31.992 Z M 186.211 31.992 L 186.211 17.774 A 2.026 2.026 0 0 0 186.183 17.425 Q 186.151 17.241 186.081 17.098 A 0.821 0.821 0 0 0 185.85 16.807 A 1.09 1.09 0 0 0 185.537 16.641 Q 185.204 16.524 184.688 16.524 L 184.688 33.242 Q 185.156 33.242 185.449 33.213 A 1.306 1.306 0 0 0 185.649 33.178 Q 185.807 33.137 185.918 33.057 A 0.578 0.578 0 0 0 186.116 32.8 A 0.789 0.789 0 0 0 186.152 32.686 A 1.673 1.673 0 0 0 186.183 32.514 Q 186.207 32.331 186.21 32.077 A 6.441 6.441 0 0 0 186.211 31.992 Z M 49.688 31.3 A 4.287 4.287 0 0 0 50.781 31.66 A 5.064 5.064 0 0 1 50.157 31.621 A 5.92 5.92 0 0 1 49.014 31.358 A 3.753 3.753 0 0 1 48.305 31.036 A 4.317 4.317 0 0 1 47.373 30.293 A 4.114 4.114 0 0 1 47.16 30.053 Q 46.571 29.336 46.172 28.223 A 6.651 6.651 0 0 1 45.941 27.412 Q 45.703 26.331 45.703 24.883 A 13.418 13.418 0 0 1 45.73 24.021 Q 45.774 23.332 45.892 22.738 A 6.516 6.516 0 0 1 46.24 21.553 A 8.902 8.902 0 0 1 46.346 21.303 Q 46.581 20.773 46.859 20.341 A 4.926 4.926 0 0 1 47.559 19.473 A 5.33 5.33 0 0 1 48.133 18.985 A 4.102 4.102 0 0 1 49.219 18.408 A 7.219 7.219 0 0 1 49.492 18.32 Q 49.835 18.217 50.146 18.164 A 3.752 3.752 0 0 1 50.781 18.106 A 3.154 3.154 0 0 0 50.715 18.123 Q 50.568 18.163 50.408 18.221 A 5.537 5.537 0 0 0 50.088 18.35 A 2.723 2.723 0 0 0 49.707 18.555 A 3.595 3.595 0 0 0 49.326 18.838 A 4.369 4.369 0 0 0 48.942 19.208 A 5.965 5.965 0 0 0 48.574 19.649 A 3.64 3.64 0 0 0 48.519 19.723 Q 48.182 20.191 47.92 20.859 Q 47.761 21.266 47.638 21.759 A 10.764 10.764 0 0 0 47.471 22.578 Q 47.377 23.139 47.336 23.798 A 17.576 17.576 0 0 0 47.305 24.883 Q 47.305 26.147 47.429 27.118 A 9.377 9.377 0 0 0 47.607 28.115 Q 47.79 28.873 48.039 29.447 A 4.642 4.642 0 0 0 48.398 30.127 Q 48.627 30.48 48.886 30.74 A 2.615 2.615 0 0 0 49.512 31.211 A 4.915 4.915 0 0 0 49.688 31.3 Z M 52.246 30.879 A 2.904 2.904 0 0 0 53.317 30.67 A 3.381 3.381 0 0 0 53.447 30.615 Q 54.018 30.363 54.463 29.724 A 3.82 3.82 0 0 0 54.502 29.668 A 3.934 3.934 0 0 0 54.821 29.083 Q 54.96 28.774 55.076 28.402 A 8.984 8.984 0 0 0 55.244 27.783 Q 55.527 26.582 55.527 24.727 A 18.07 18.07 0 0 0 55.494 23.592 Q 55.43 22.579 55.244 21.836 A 7.63 7.63 0 0 0 55.028 21.114 Q 54.899 20.756 54.746 20.464 A 3.523 3.523 0 0 0 54.492 20.049 A 3.268 3.268 0 0 0 54.092 19.583 Q 53.824 19.328 53.524 19.181 A 1.99 1.99 0 0 0 53.438 19.141 A 2.983 2.983 0 0 0 52.322 18.888 A 2.88 2.88 0 0 0 52.246 18.887 A 2.669 2.669 0 0 0 51.783 18.93 Q 51.507 18.978 51.201 19.082 Q 50.625 19.277 50.127 19.912 Q 49.766 20.373 49.492 21.121 A 8.304 8.304 0 0 0 49.297 21.729 A 7.438 7.438 0 0 0 49.108 22.634 Q 49.036 23.111 49.001 23.674 A 19.118 19.118 0 0 0 48.965 24.883 A 23.496 23.496 0 0 0 48.992 26.04 Q 49.05 27.228 49.238 28.047 Q 49.512 29.238 49.961 29.863 A 2.639 2.639 0 0 0 50.342 30.293 A 1.862 1.862 0 0 0 51.006 30.684 A 3.955 3.955 0 0 0 52.246 30.879 Z M 15.059 18.145 L 9.316 9.024 A 1.622 1.622 0 0 0 9.177 8.824 Q 9 8.61 8.799 8.555 A 2.216 2.216 0 0 0 8.242 8.477 A 2.478 2.478 0 0 0 8.203 8.477 L 7.227 8.477 L 14.258 19.649 L 15.059 18.145 Z M 74.18 25.606 L 70.781 17.129 A 1.182 1.182 0 0 0 70.6 16.824 Q 70.358 16.535 69.955 16.524 A 1.183 1.183 0 0 0 69.922 16.524 L 68.984 16.524 L 73.418 27.637 L 74.18 25.606 Z M 164.043 25.43 L 160.723 17.129 A 1.182 1.182 0 0 0 160.542 16.824 Q 160.299 16.535 159.896 16.524 A 1.183 1.183 0 0 0 159.863 16.524 L 158.926 16.524 L 163.281 27.402 L 164.043 25.43 Z M 93.848 6.524 Q 93.848 7.891 93.311 9.102 A 6.749 6.749 0 0 1 91.855 11.211 A 4.401 4.401 0 0 0 93.291 10.567 A 5.036 5.036 0 0 0 94.424 9.502 Q 94.902 8.887 95.176 8.125 A 4.704 4.704 0 0 0 95.449 6.524 A 4.704 4.704 0 0 0 95.176 4.922 Q 94.902 4.16 94.424 3.545 A 4.852 4.852 0 0 0 93.291 2.49 A 4.873 4.873 0 0 0 91.855 1.836 Q 92.773 2.734 93.311 3.945 Q 93.848 5.156 93.848 6.524 Z M 115.215 24.238 L 121.367 24.238 A 16.527 16.527 0 0 0 121.336 23.185 Q 121.304 22.691 121.241 22.267 A 7.372 7.372 0 0 0 121.123 21.651 A 7.153 7.153 0 0 0 120.921 20.953 Q 120.804 20.615 120.661 20.339 A 3.399 3.399 0 0 0 120.469 20.01 A 2.827 2.827 0 0 0 120.086 19.544 A 2.076 2.076 0 0 0 119.502 19.141 Q 118.945 18.887 118.34 18.887 Q 117.892 18.887 117.367 19.061 A 4.435 4.435 0 0 0 117.363 19.063 Q 116.836 19.238 116.377 19.805 A 3.245 3.245 0 0 0 116.052 20.298 Q 115.797 20.767 115.596 21.426 A 6.973 6.973 0 0 0 115.405 22.234 Q 115.329 22.659 115.282 23.161 A 17.644 17.644 0 0 0 115.215 24.238 Z" vector-effect="non-scaling-stroke"/></g></svg>